<svg width="180" height="180" viewBox="0 0 180 180" fill="none" xmlns="http://www.w3.org/2000/svg">
  <rect width="180" height="180" rx="40" fill="#FFF8E7"/>
  <circle cx="90" cy="90" r="70" fill="#FFC93C"/>
  <circle cx="90" cy="90" r="63" fill="#F5B82E"/>
  <line x1="77" y1="133" x2="77" y2="154" stroke="#FF8A3D" stroke-width="7" stroke-linecap="round"/>
  <line x1="104" y1="133" x2="104" y2="154" stroke="#FF8A3D" stroke-width="7" stroke-linecap="round"/>
  <line x1="67" y1="154" x2="86" y2="154" stroke="#FF8A3D" stroke-width="7" stroke-linecap="round"/>
  <line x1="94" y1="154" x2="113" y2="154" stroke="#FF8A3D" stroke-width="7" stroke-linecap="round"/>
  <ellipse cx="90" cy="94" rx="49" ry="46" fill="#FFC93C"/>
  <ellipse cx="90" cy="105" rx="31" ry="24" fill="white" fill-opacity=".35"/>
  <ellipse cx="72" cy="99" rx="15" ry="21" fill="#2B1810" fill-opacity=".08" transform="rotate(-8 72 99)"/>
  <path d="M75 51Q79 33 87 49Q90 31 98 49Q105 33 110 51Z" fill="#E84C3D"/>
  <circle cx="106" cy="74" r="5.8" fill="#2B1810"/>
  <circle cx="108" cy="72" r="1.8" fill="#fff"/>
  <path d="M119 82L137 88L119 93Z" fill="#FF8A3D"/>
  <ellipse cx="115" cy="98" rx="5" ry="7" fill="#E84C3D"/>
  <path d="M37 48c8-11 19-18 31-22M143 132c-8 10-20 17-33 21" stroke="#fff" stroke-width="5" stroke-linecap="round" opacity=".55"/>
</svg>
